<svg width="37" height="46" viewBox="0 0 37 46" fill="none" xmlns="http://www.w3.org/2000/svg">
<path d="M4.91116 5.83136C1.57417 9.42394 -0.0918285 14.1314 1.7843 17.2284C2.65005 18.6576 3.91056 20.5537 8.16312 21.4404C12.4157 22.3271 17.5688 19.9105 16.293 18.9628C13.2912 16.7329 13.4644 15.7355 17.0434 14.7508C21.5461 13.512 22.9219 13.6359 23.4222 13.6359C24.7981 13.6359 27.2262 14.2553 28.3002 15.3702C29.3741 16.4852 30.1805 17.596 28.3002 19.4583C26.9243 20.821 24.1224 21.7089 19.67 22.6792C13.0658 24.1185 9.76382 21.9553 8.16312 25.033C7.54014 26.2307 7.59574 28.7364 10.5395 31.8464C11.8463 33.227 14.5419 35.1912 16.293 35.1912C18.044 35.1912 16.293 35.3707 16.293 36.9256C16.293 37.9166 17.5437 38.2883 19.67 36.0584C20.0804 35.628 21.6712 31.8607 19.0446 32.9613C17.3961 33.6521 12.6658 30.3599 12.2906 28.2539C11.9154 26.1479 17.5437 26.024 19.67 26.024C22.2966 26.024 26.1739 26.024 31.1769 23.6703C37.9451 20.486 37.2612 12.7439 31.1769 5.83136C26.9243 1 20.5584 1 20.2954 1C11.7903 1 6.6622 3.94621 4.91116 5.83136Z" fill="white" stroke="white"/>
<ellipse rx="2.51489" ry="3.57963" transform="matrix(0.79585 0.605494 -0.612841 0.790206 18.7371 41.6486)" fill="white"/>
</svg>
